<svg width="20" height="27" viewBox="0 0 20 27" fill="none" xmlns="http://www.w3.org/2000/svg">
<path d="M14.3081 6.38398C14.3079 6.33294 14.2962 6.2826 14.2739 6.23671C14.2515 6.19082 14.2191 6.15056 14.1791 6.11894C14.139 6.08732 14.0923 6.06514 14.0425 6.05407C13.9927 6.043 13.941 6.04332 13.8913 6.055L4.24447 8.29555C4.17002 8.3127 4.10356 8.35455 4.05593 8.41428C4.0083 8.47402 3.9823 8.54813 3.98217 8.62453V19.4075C3.98217 20.8993 4.22827 22.5716 3.60431 23.9626C3.02412 25.256 1.78465 26.1169 0.419006 26.3998C0.749691 26.4676 1.08637 26.5018 1.42393 26.502C3.15103 26.502 4.87852 25.5632 5.5965 23.9626C6.22045 22.5716 5.97435 20.8993 5.97435 19.4075V8.62453C5.97449 8.54813 6.00049 8.47402 6.04812 8.41428C6.09575 8.35455 6.16221 8.3127 6.23666 8.29555L14.3081 6.4209V6.38398ZM1.06235 18.2727C0.84913 18.2878 0.637101 18.3165 0.427573 18.3588C0.554608 18.3847 0.679916 18.4147 0.802702 18.4499C0.831565 18.4584 0.861952 18.4604 0.891668 18.4557C0.921383 18.451 0.949686 18.4398 0.97453 18.4228C0.999375 18.4058 1.02014 18.3836 1.03533 18.3576C1.05052 18.3316 1.05974 18.3026 1.06235 18.2726V18.2727ZM19.218 19.4434C19.2172 16.9282 19.2172 14.413 19.218 11.8979V1.84266C19.2175 1.69091 19.183 1.54119 19.1172 1.40447C19.0513 1.26776 18.9557 1.14751 18.8373 1.05253C18.719 0.957554 18.5809 0.890258 18.4331 0.855574C18.2854 0.820889 18.1318 0.819694 17.9835 0.852075L16.8857 1.08868C16.9927 1.18298 17.0784 1.29901 17.137 1.42902C17.1956 1.55902 17.2259 1.70004 17.2258 1.84266V19.4434C17.2262 20.8536 17.3878 22.1648 16.5613 23.413C15.8792 24.4207 14.8345 25.1263 13.6449 25.3826C13.9813 25.4528 14.324 25.4883 14.6676 25.4884C16.1883 25.4884 17.7006 24.7011 18.5535 23.413C19.38 22.1648 19.2184 20.8537 19.218 19.4434V19.4434ZM14.306 17.2591C14.0928 17.2742 13.8808 17.303 13.6712 17.3453C13.7983 17.3712 13.9236 17.4012 14.0464 17.4364C14.0752 17.4449 14.1056 17.4469 14.1353 17.4422C14.165 17.4375 14.1933 17.4263 14.2182 17.4093C14.243 17.3923 14.2638 17.3701 14.279 17.3441C14.2942 17.3181 14.3034 17.2891 14.306 17.2591V17.2591Z" fill="#9CBCBB"/>
</svg>
